<svg width="14" height="14" viewBox="0 0 14 14" fill="none" xmlns="http://www.w3.org/2000/svg">
<path fill-rule="evenodd" clip-rule="evenodd" d="M0.722413 2.12669L5.25116 7.48194V11.0834C5.25116 11.3043 5.376 11.5063 5.57362 11.6051L7.90695 12.7718C8.29481 12.9657 8.75116 12.6837 8.75116 12.25V7.48194L13.2799 2.12669C13.6005 1.74754 13.331 1.16669 12.8345 1.16669H1.16783C0.671279 1.16669 0.401778 1.74754 0.722413 2.12669ZM2.42509 2.33335H11.5772L7.72241 6.89168C7.63336 6.99699 7.58449 7.13044 7.58449 7.26835V11.3062L6.41783 10.7228V7.26835C6.41783 7.13044 6.36896 6.99699 6.27991 6.89168L2.42509 2.33335Z" fill="black"/>
<mask id="mask0" style="mask-type:alpha" maskUnits="userSpaceOnUse" x="0" y="1" width="14" height="12">
<path fill-rule="evenodd" clip-rule="evenodd" d="M0.722413 2.12669L5.25116 7.48194V11.0834C5.25116 11.3043 5.376 11.5063 5.57362 11.6051L7.90695 12.7718C8.29481 12.9657 8.75116 12.6837 8.75116 12.25V7.48194L13.2799 2.12669C13.6005 1.74754 13.331 1.16669 12.8345 1.16669H1.16783C0.671279 1.16669 0.401778 1.74754 0.722413 2.12669ZM2.42509 2.33335H11.5772L7.72241 6.89168C7.63336 6.99699 7.58449 7.13044 7.58449 7.26835V11.3062L6.41783 10.7228V7.26835C6.41783 7.13044 6.36896 6.99699 6.27991 6.89168L2.42509 2.33335Z" fill="white"/>
</mask>
<g mask="url(#mask0)">
<rect width="14" height="14" fill="#0E2354"/>
</g>
</svg>
