<svg width="14" height="14" viewBox="0 0 14 14" fill="none" xmlns="http://www.w3.org/2000/svg">
<path fill-rule="evenodd" clip-rule="evenodd" d="M6.41671 6.41671V2.91671C6.41671 2.59454 6.67787 2.33337 7.00004 2.33337C7.32221 2.33337 7.58337 2.59454 7.58337 2.91671V6.41671H11.0834C11.4055 6.41671 11.6667 6.67787 11.6667 7.00004C11.6667 7.32221 11.4055 7.58337 11.0834 7.58337H7.58337V11.0834C7.58337 11.4055 7.32221 11.6667 7.00004 11.6667C6.67787 11.6667 6.41671 11.4055 6.41671 11.0834V7.58337H2.91671C2.59454 7.58337 2.33337 7.32221 2.33337 7.00004C2.33337 6.67787 2.59454 6.41671 2.91671 6.41671H6.41671Z" fill="black"/>
<mask id="mask0" style="mask-type:alpha" maskUnits="userSpaceOnUse" x="2" y="2" width="10" height="10">
<path fill-rule="evenodd" clip-rule="evenodd" d="M6.41671 6.41671V2.91671C6.41671 2.59454 6.67787 2.33337 7.00004 2.33337C7.32221 2.33337 7.58337 2.59454 7.58337 2.91671V6.41671H11.0834C11.4055 6.41671 11.6667 6.67787 11.6667 7.00004C11.6667 7.32221 11.4055 7.58337 11.0834 7.58337H7.58337V11.0834C7.58337 11.4055 7.32221 11.6667 7.00004 11.6667C6.67787 11.6667 6.41671 11.4055 6.41671 11.0834V7.58337H2.91671C2.59454 7.58337 2.33337 7.32221 2.33337 7.00004C2.33337 6.67787 2.59454 6.41671 2.91671 6.41671H6.41671Z" fill="white"/>
</mask>
<g mask="url(#mask0)">
<rect width="14" height="14" fill="white"/>
</g>
</svg>
